<svg width="24" height="24" viewBox="0 0 24 24" fill="none" xmlns="http://www.w3.org/2000/svg">
<path d="M12 2L13.09 8.26L19 8.27L14 12.14L15.18 18.02L12 14.77L8.82 18.02L10 12.14L5 8.27L10.91 8.26L12 2Z" fill="white"/>
<path d="M12 2L13.09 8.26L19 8.27L14 12.14L15.18 18.02L12 14.77L8.82 18.02L10 12.14L5 8.27L10.91 8.26L12 2Z" fill="url(#paint0_radial_101_2703)"/>
<path d="M12 2L13.09 8.26L19 8.27L14 12.14L15.18 18.02L12 14.77L8.82 18.02L10 12.14L5 8.27L10.91 8.26L12 2Z" fill="black" fill-opacity="0.5" style="mix-blend-mode:hard-light"/>
<path d="M12 2L13.09 8.26L19 8.27L14 12.14L15.18 18.02L12 14.77L8.82 18.02L10 12.14L5 8.27L10.91 8.26L12 2Z" fill="url(#paint1_linear_101_2703)" fill-opacity="0.5" style="mix-blend-mode:hard-light"/>
<path d="M12.68 8.27L19 8.27L14 12.14L15.18 18.02L12 14.77L8.82 18.02L10 12.14L5 8.27L10.91 8.26L12 2L13.09 8.26L12.68 8.27Z" stroke="url(#paint2_linear_101_2703)" stroke-opacity="0.05" stroke-width="0.056338"/>
<path d="M12 2L13.09 8.26L19 8.27L14 12.14L15.18 18.02L12 14.77L8.82 18.02L10 12.14L5 8.27L10.91 8.26L12 2Z" fill="white"/>
<path d="M12 2L13.09 8.26L19 8.27L14 12.14L15.18 18.02L12 14.77L8.82 18.02L10 12.14L5 8.27L10.91 8.26L12 2Z" fill="url(#paint3_radial_101_2703)"/>
<path d="M12 2L13.09 8.26L19 8.27L14 12.14L15.18 18.02L12 14.77L8.82 18.02L10 12.14L5 8.27L10.91 8.26L12 2Z" fill="black" fill-opacity="0.2" style="mix-blend-mode:hard-light"/>
<path d="M12 2L13.09 8.26L19 8.27L14 12.14L15.18 18.02L12 14.77L8.82 18.02L10 12.14L5 8.27L10.91 8.26L12 2Z" fill="url(#paint4_linear_101_2703)" fill-opacity="0.5" style="mix-blend-mode:hard-light"/>
<path d="M12 2L13.09 8.26L19 8.27L14 12.14L15.18 18.02L12 14.77L8.82 18.02L10 12.14L5 8.27L10.91 8.26L12 2Z" stroke="url(#paint5_linear_101_2703)" stroke-opacity="0.05" stroke-width="0.056338"/>
<defs>
<radialGradient id="paint0_radial_101_2703" cx="0" cy="0" r="1" gradientUnits="userSpaceOnUse" gradientTransform="translate(-3.00503 15.023) rotate(-10.029) scale(17.9572 17.784)">
<stop stop-color="#00B0BB"/>
<stop offset="1" stop-color="#00DB65"/>
</radialGradient>
<linearGradient id="paint1_linear_101_2703" x1="7.39036" y1="4.81308" x2="1.62975" y2="18.6894" gradientUnits="userSpaceOnUse">
<stop stop-color="#18E299"/>
<stop offset="1"/>
</linearGradient>
<linearGradient id="paint2_linear_101_2703" x1="7.94816" y1="8.01563" x2="1.7612" y2="18.746" gradientUnits="userSpaceOnUse">
<stop/>
<stop offset="1" stop-opacity="0"/>
</linearGradient>
<radialGradient id="paint3_radial_101_2703" cx="0" cy="0" r="1" gradientUnits="userSpaceOnUse" gradientTransform="translate(8.11404 20.8822) rotate(-75.7542) scale(21.6246 23.7772)">
<stop stop-color="#00BBBB"/>
<stop offset="0.712616" stop-color="#00DB65"/>
</radialGradient>
<linearGradient id="paint4_linear_101_2703" x1="7.60205" y1="5.8709" x2="15.5561" y2="16.3719" gradientUnits="userSpaceOnUse">
<stop/>
<stop offset="1" stop-opacity="0"/>
</linearGradient>
<radialGradient id="paint5_radial_101_2703" cx="0" cy="0" r="1" gradientUnits="userSpaceOnUse" gradientTransform="translate(7.84537 21.5181) rotate(-20.3525) scale(18.5603 17.32)">
<stop stop-color="#00B0BB"/>
<stop offset="1" stop-color="#00DB65"/>
</radialGradient>
<linearGradient id="paint6_linear_101_2703" x1="16.8078" y1="13.0071" x2="10.0409" y2="22.9937" gradientUnits="userSpaceOnUse">
<stop stop-color="#00B1BC"/>
<stop offset="1"/>
</linearGradient>
<linearGradient id="paint7_linear_101_2703" x1="16.8078" y1="13.0071" x2="14.1687" y2="23.841" gradientUnits="userSpaceOnUse">
<stop/>
<stop offset="1" stop-opacity="0"/>
</linearGradient>
</defs>
</svg>
